<svg xmlns="http://www.w3.org/2000/svg" xmlns:xlink="http://www.w3.org/1999/xlink" viewBox="0 0 167.11 218.73"><defs><style>.cls-1{fill:url(#linear-gradient);}.cls-2{fill:url(#linear-gradient-2);}.cls-3{fill:url(#linear-gradient-3);}.cls-4{fill:url(#linear-gradient-4);}.cls-5{fill:url(#linear-gradient-5);}.cls-6{fill:url(#linear-gradient-6);}.cls-7{fill:#3b4d65;}</style><linearGradient id="linear-gradient" x1="38.28" y1="11.4" x2="129.88" y2="11.4" gradientUnits="userSpaceOnUse"><stop offset="0" stop-color="#4c2ebd"/><stop offset="0.41" stop-color="#a73aca"/><stop offset="1" stop-color="#f63c16"/></linearGradient><linearGradient id="linear-gradient-2" x1="38.28" y1="5.07" x2="129.88" y2="5.07" xlink:href="#linear-gradient"/><linearGradient id="linear-gradient-3" x1="38.28" y1="18.69" x2="129.88" y2="18.69" xlink:href="#linear-gradient"/><linearGradient id="linear-gradient-4" x1="38.28" y1="83.15" x2="129.88" y2="83.15" xlink:href="#linear-gradient"/><linearGradient id="linear-gradient-5" x1="38.28" y1="32.03" x2="129.88" y2="32.03" xlink:href="#linear-gradient"/><linearGradient id="linear-gradient-6" x1="38.28" y1="25.69" x2="129.88" y2="25.69" xlink:href="#linear-gradient"/></defs><g id="Camada_2" data-name="Camada 2"><g id="Layer_1" data-name="Layer 1"><path class="cls-1" d="M64.67,12.64l8,3.44a2.16,2.16,0,0,0,.88.18,2.4,2.4,0,0,0,1.91-3.91.19.19,0,0,0-.16-.06,7.33,7.33,0,0,1-1,.07,7.82,7.82,0,0,1-4.52-1.42A3.58,3.58,0,0,1,68.18,8a2.93,2.93,0,0,1,0-.41.18.18,0,0,0-.08-.16l-.55-.37a3.17,3.17,0,0,0-4.9,2.39A3.16,3.16,0,0,0,64.67,12.64Z"/><path class="cls-2" d="M71.06,9.17a5.53,5.53,0,0,0,3.16,1A5.59,5.59,0,0,0,77,9.41l8.22-4.7.15-.07,2-.79a.17.17,0,0,0,0-.3l-5-3.32A1.84,1.84,0,0,0,81.5,0a1.81,1.81,0,0,0-1,.33L71,6.9A1.35,1.35,0,0,0,70.4,8,1.43,1.43,0,0,0,71.06,9.17Z"/><path class="cls-3" d="M60.47,20.14l1,.34L68.93,23l.3.11.41.14h0l.21.07a2.54,2.54,0,0,0,.8.14h.07a2.77,2.77,0,0,0,1.94-.82,2.75,2.75,0,0,0-.87-4.44l-.18-.08L71.47,18l0,0-8.71-3.76A3,3,0,0,0,61.46,14h-.05a3.17,3.17,0,0,0-.94,6.18Z"/><path class="cls-4" d="M131.53,53.33a41.17,41.17,0,0,0-11-14.3,47.43,47.43,0,0,0-9.52-6.14.16.16,0,0,0-.2,0l-4.8,5.24a8.37,8.37,0,0,1-2.78,2L87.61,47.33a.18.18,0,0,0,0,.33,32.77,32.77,0,0,1,15.68,8.63A22.82,22.82,0,0,1,110,72.91v45.92q0,10.3-6.83,16.87t-18.67,6.57q-12.36,0-18.93-6.7A22.93,22.93,0,0,1,59,118.83V72.91a22.58,22.58,0,0,1,6.83-16.62c3.55-3.55,3.26-2.95,36.52-18.15a6.16,6.16,0,0,0,2-1.48l7.09-7.75,0,0a3,3,0,0,0,0-4.18l0,0a2.55,2.55,0,0,0-2.18-.68,3,3,0,0,0-.95.35l-3.64,2.13a1,1,0,0,1-.28.12,1.11,1.11,0,0,1-1.31-.66,1.12,1.12,0,0,1,.49-1.39l5.52-3.23h0a3.39,3.39,0,0,0,.64-.49,3,3,0,0,0,.75-3,2,2,0,0,0-.12-.34,3,3,0,0,0-3.1-1.76,3.05,3.05,0,0,0-1.21.41l-.17.1h0l-5.15,3a1.09,1.09,0,0,1-1.54-.43,1.15,1.15,0,0,1,.45-1.51L105.41,14h0l.14-.07.06,0h0l.18-.09a3.28,3.28,0,0,0,1.32-1.41,2.13,2.13,0,0,0,.14-.35,3.18,3.18,0,0,0-.77-3.24,3.13,3.13,0,0,0-2.23-.93,3.21,3.21,0,0,0-1.46.35l-.32.18-.2.12,0,0-.15.08-.22.13h0l-4,2.23a1.11,1.11,0,0,1-.54.14,1.09,1.09,0,0,1-1-.56A1.1,1.1,0,0,1,96.84,9l4.36-2.45a3.39,3.39,0,0,0,.42-.35,2.69,2.69,0,0,0-1.9-4.59,2.85,2.85,0,0,0-.76.11l-.19.07L86.24,6.68l-8.15,4.67-.35.18a.18.18,0,0,0-.07.24,4.65,4.65,0,0,1-2.42,6.39.16.16,0,0,0-.09.24,5,5,0,0,1-3.37,7.15.17.17,0,0,0-.13.22,3.73,3.73,0,0,1,.18,1.05,4.25,4.25,0,0,1-3,4.26.18.18,0,0,0-.12.23,3.65,3.65,0,0,1,.19,1.35,3.74,3.74,0,0,1-3.74,3.56h-.07L59,36.11h-.2a4.13,4.13,0,0,1-2.86-1.36,3.41,3.41,0,0,1-.37-.48.18.18,0,0,0-.23-.06,44,44,0,0,0-7,4.95A41.72,41.72,0,0,0,37.64,53.59a45.62,45.62,0,0,0-3.86,19.06v46.44a46.91,46.91,0,0,0,3.86,19.57A39.7,39.7,0,0,0,48.46,153a47.69,47.69,0,0,0,16.23,8.76,65.83,65.83,0,0,0,20.09,3A64.4,64.4,0,0,0,105,161.59a45.27,45.27,0,0,0,16.1-9,42.89,42.89,0,0,0,10.56-14.29,45.41,45.41,0,0,0,3.86-19.19V72.65A45,45,0,0,0,131.53,53.33Z"/><path class="cls-5" d="M59.22,30.08H59a1.88,1.88,0,0,0-1.28.49,1.91,1.91,0,0,0-.63,1.32,1.94,1.94,0,0,0,.49,1.38,1.91,1.91,0,0,0,1.32.63H59l6.07.11h0a1.51,1.51,0,0,0,1.52-1.45A1.53,1.53,0,0,0,65.32,31Z"/><path class="cls-6" d="M59.3,27.85l.21,0h.05l.08,0L67.28,29h0l.29,0h.09a2,2,0,0,0,1.94-2.12,2,2,0,0,0-1.19-1.76l-8-2.68a2.83,2.83,0,0,0-.78-.11h-.12a2.76,2.76,0,0,0-.22,5.49Z"/><path class="cls-7" d="M0,190.06c0-5.52,4.35-9.53,10.28-9.53s10.29,4,10.29,9.53-4.35,9.53-10.29,9.53S0,195.58,0,190.06Zm14.37,0c0-2.84-1.82-4.55-4.09-4.55s-4.08,1.71-4.08,4.55,1.82,4.56,4.08,4.56S14.37,192.9,14.37,190.06Z"/><path class="cls-7" d="M31.56,185.58v3.13h7.6v4.63h-7.6v5.83H25.41V181H40.23v4.63Z"/><path class="cls-7" d="M50.93,185.58v3.13h7.6v4.63h-7.6v5.83H44.78V181H59.6v4.63Z"/><path class="cls-7" d="M64.16,181H70.3v18.22H64.16Z"/><path class="cls-7" d="M75.14,190.06c0-5.6,4.3-9.53,10.16-9.53a9.81,9.81,0,0,1,8.17,3.65l-3.88,3.46a4.91,4.91,0,0,0-4-2.13c-2.55,0-4.27,1.77-4.27,4.55s1.72,4.56,4.27,4.56a4.9,4.9,0,0,0,4-2.14L93.47,196a9.83,9.83,0,0,1-8.17,3.64C79.44,199.59,75.14,195.66,75.14,190.06Z"/><path class="cls-7" d="M97.85,181H104v18.22H97.85Z"/><path class="cls-7" d="M122,196h-6.93l-1.22,3.17h-6.25l8-18.22h6l8,18.22h-6.35Zm-1.7-4.43L118.52,187l-1.77,4.58Z"/><path class="cls-7" d="M133.16,181h6.14v13.46h8.23v4.76H133.16Z"/><path class="cls-7" d="M150.68,197.72l2-4.48a12.56,12.56,0,0,0,6,1.66c1.75,0,2.37-.36,2.37-1,0-2.29-10.07-.44-10.07-7.23,0-3.39,2.83-6.15,8.48-6.15a14.46,14.46,0,0,1,6.88,1.59l-1.85,4.45a11.27,11.27,0,0,0-5.08-1.35c-1.79,0-2.37.52-2.37,1.14,0,2.19,10.08.37,10.08,7.09,0,3.33-2.84,6.14-8.49,6.14A16.3,16.3,0,0,1,150.68,197.72Z"/><path class="cls-7" d="M28.35,213.29a5.4,5.4,0,0,1,5.71-5.43,5.43,5.43,0,0,1,4.32,1.86l-1.56,1.44a3.39,3.39,0,0,0-2.64-1.23,3.37,3.37,0,1,0,0,6.73,3.34,3.34,0,0,0,2.64-1.25l1.56,1.44A5.39,5.39,0,0,1,34,218.73,5.4,5.4,0,0,1,28.35,213.29Z"/><path class="cls-7" d="M40.63,213.29a5.44,5.44,0,0,1,5.75-5.43,5.44,5.44,0,1,1,0,10.87A5.44,5.44,0,0,1,40.63,213.29Zm9,0a3.29,3.29,0,1,0-3.29,3.37A3.21,3.21,0,0,0,49.67,213.29Z"/><path class="cls-7" d="M65,218.55v-6.31l-3.1,5.2H60.83l-3.08-5.06v6.17H55.47V208h2l3.93,6.53L65.29,208h2l0,10.51Z"/><path class="cls-7" d="M80.87,218.55v-6.31l-3.1,5.2H76.67l-3.08-5.06v6.17H71.31V208h2l3.93,6.53L81.13,208h2l0,10.51Z"/><path class="cls-7" d="M87.06,213.92V208h2.43v5.79c0,2,.87,2.83,2.34,2.83s2.35-.83,2.35-2.83V208h2.4v5.88c0,3.1-1.77,4.81-4.76,4.81S87.06,217,87.06,213.92Z"/><path class="cls-7" d="M110.12,208v10.51h-2l-5.24-6.38v6.38h-2.4V208h2l5.23,6.38V208Z"/><path class="cls-7" d="M114.12,208h2.43v10.51h-2.43Z"/><path class="cls-7" d="M122.72,210h-3.36v-2h9.16v2h-3.37v8.53h-2.43Z"/><path class="cls-7" d="M136.17,214.82v3.73h-2.43V214.8L129.67,208h2.58l2.81,4.67,2.81-4.67h2.39Z"/></g></g></svg>